<svg width="24" height="24" viewBox="0 0 24 24" fill="none" xmlns="http://www.w3.org/2000/svg">
<rect width="24" height="24" rx="4" fill="#0A0A0A"/>
<g filter="url(#filter0_d_8364_16857)">
<path d="M14.7903 8.51605V10.1317C14.7903 10.2981 14.8792 10.4524 15.0223 10.5356L19.2071 12.9592C19.3514 13.0423 19.5281 13.0423 19.6723 12.9592L20.1376 12.6903C20.2819 12.6071 20.3696 12.4527 20.3696 12.2864V10.6707C20.3696 10.5043 20.2807 10.35 20.1376 10.2668L15.9528 7.84325C15.8085 7.76005 15.6318 7.76005 15.4875 7.84325L15.0223 8.11213C14.878 8.19532 14.7903 8.34966 14.7903 8.51605Z" fill="white"/>
<path d="M10.3553 7.82637L11.7498 8.63421C11.8941 8.71741 12.0708 8.71741 12.2151 8.63421L16.3999 6.2107C16.5441 6.1275 16.6319 5.97317 16.6319 5.80678V5.26782C16.6319 5.10143 16.5429 4.9471 16.3999 4.8639L15.0054 4.05606C14.8611 3.97287 14.6844 3.97287 14.5401 4.05606L10.3553 6.47958C10.2111 6.56277 10.1233 6.7171 10.1233 6.88349V7.42245C10.1233 7.58884 10.2123 7.74318 10.3553 7.82637Z" fill="white"/>
<path d="M7.58194 11.3435L8.97648 10.5356C9.12074 10.4525 9.2085 10.2981 9.2085 10.1317V5.28471C9.2085 5.11832 9.11954 4.96398 8.97648 4.88079L8.51123 4.61191C8.36697 4.52872 8.19025 4.52872 8.04599 4.61191L6.65145 5.41975C6.50719 5.50294 6.41943 5.65728 6.41943 5.82367V10.6707C6.41943 10.8371 6.5084 10.9914 6.65145 11.0746L7.1167 11.3435C7.26096 11.4267 7.43768 11.4267 7.58194 11.3435Z" fill="white"/>
<path d="M9.2097 15.5165V13.9008C9.2097 13.7344 9.12074 13.5801 8.97768 13.4969L4.79288 11.0734C4.64862 10.9902 4.4719 10.9902 4.32764 11.0734L3.86239 11.3423C3.71813 11.4255 3.63037 11.5798 3.63037 11.7462V13.3619C3.63037 13.5283 3.71933 13.6826 3.86239 13.7658L8.04719 16.1893C8.19145 16.2725 8.36817 16.2725 8.51244 16.1893L8.97768 15.9204C9.12194 15.8372 9.2097 15.6829 9.2097 15.5165Z" fill="white"/>
<path d="M13.6108 16.1736L12.2163 15.3658C12.072 15.2826 11.8953 15.2826 11.751 15.3658L7.56625 17.7893C7.42199 17.8725 7.33423 18.0268 7.33423 18.1932V18.7322C7.33423 18.8986 7.42319 19.0529 7.56625 19.1361L8.96078 19.9439C9.10504 20.0271 9.28176 20.0271 9.42603 19.9439L13.6108 17.5204C13.7551 17.4372 13.8428 17.2829 13.8428 17.1165V16.5775C13.8428 16.4112 13.7539 16.2568 13.6108 16.1736Z" fill="white"/>
<path d="M16.4012 12.6722L15.0067 13.48C14.8624 13.5632 14.7747 13.7176 14.7747 13.884V18.731C14.7747 18.8974 14.8636 19.0517 15.0067 19.1349L15.4719 19.4038C15.6162 19.487 15.7929 19.487 15.9372 19.4038L17.3317 18.5959C17.476 18.5127 17.5637 18.3584 17.5637 18.192V13.345C17.5637 13.1786 17.4748 13.0243 17.3317 12.9411L16.8665 12.6722C16.7222 12.589 16.5455 12.589 16.4012 12.6722Z" fill="white"/>
</g>
<defs>
<filter id="filter0_d_8364_16857" x="2.63037" y="3.99367" width="18.7393" height="18.0127" filterUnits="userSpaceOnUse" color-interpolation-filters="sRGB">
<feFlood flood-opacity="0" result="BackgroundImageFix"/>
<feColorMatrix in="SourceAlpha" type="matrix" values="0 0 0 0 0 0 0 0 0 0 0 0 0 0 0 0 0 0 127 0" result="hardAlpha"/>
<feOffset dy="1"/>
<feGaussianBlur stdDeviation="0.5"/>
<feComposite in2="hardAlpha" operator="out"/>
<feColorMatrix type="matrix" values="0 0 0 0 0 0 0 0 0 0 0 0 0 0 0 0 0 0 0.5 0"/>
<feBlend mode="normal" in2="BackgroundImageFix" result="effect1_dropShadow_8364_16857"/>
<feBlend mode="normal" in="SourceGraphic" in2="effect1_dropShadow_8364_16857" result="shape"/>
</filter>
</defs>
</svg>
